# xmcd
#
# Track frame offsets: 
#        150
#        23285
#        43570
#        62235
#        83187
#        113285
#        133752
#        151817
#        173782
#        192212
#
# Disc length: 2908 seconds
#
# Revision: 18
# Processed by: cddbd v1.5.2PL0 Copyright (c) Steve Scherf et al.
# Submitted via: ExactAudioCopy v1.3
#
DISCID=6f0b5a0a
DTITLE=尾崎豊 - 回帰線
DYEAR=1985
DGENRE=JPop
TTITLE0=Scrambling Rock'n'Roll
TTITLE1=Bow!
TTITLE2=Scrap Alley
TTITLE3=ダンスホール
TTITLE4=卒業
TTITLE5=存在
TTITLE6=坂の下に見えたあの街に
TTITLE7=群衆の中の猫
TTITLE8=Teenage Blue
TTITLE9=シェリー
EXTD=YEAR: 1985
EXTT0=
EXTT1=
EXTT2=
EXTT3=
EXTT4=
EXTT5=
EXTT6=
EXTT7=
EXTT8=
EXTT9=
PLAYORDER=
